<svg width="21" height="20" viewBox="0 0 21 20" fill="none" xmlns="http://www.w3.org/2000/svg">
<path d="M10.5003 10.8335C10.9606 10.8335 11.3337 10.4604 11.3337 10.0002C11.3337 9.53993 10.9606 9.16683 10.5003 9.16683C10.0401 9.16683 9.66699 9.53993 9.66699 10.0002C9.66699 10.4604 10.0401 10.8335 10.5003 10.8335Z" stroke="#475467" stroke-width="1.66667" stroke-linecap="round" stroke-linejoin="round"/>
<path d="M10.5003 5.00016C10.9606 5.00016 11.3337 4.62707 11.3337 4.16683C11.3337 3.70659 10.9606 3.3335 10.5003 3.3335C10.0401 3.3335 9.66699 3.70659 9.66699 4.16683C9.66699 4.62707 10.0401 5.00016 10.5003 5.00016Z" stroke="#475467" stroke-width="1.66667" stroke-linecap="round" stroke-linejoin="round"/>
<path d="M10.5003 16.6668C10.9606 16.6668 11.3337 16.2937 11.3337 15.8335C11.3337 15.3733 10.9606 15.0002 10.5003 15.0002C10.0401 15.0002 9.66699 15.3733 9.66699 15.8335C9.66699 16.2937 10.0401 16.6668 10.5003 16.6668Z" stroke="#475467" stroke-width="1.66667" stroke-linecap="round" stroke-linejoin="round"/>
</svg>
