<svg width="81" height="16" viewBox="0 0 81 16" fill="none" xmlns="http://www.w3.org/2000/svg">
<path d="M32.351 14.0996H30.7882C29.0269 14.0973 27.3385 13.3963 26.0935 12.1505C24.8485 10.9047 24.1486 9.21581 24.1475 7.45454V6.64935C24.1486 4.88808 24.8485 3.1992 26.0935 1.95339C27.3385 0.707579 29.0269 0.00662644 30.7882 0.0043335H35.0176V2.60174H30.7882C29.7204 2.60403 28.697 3.02952 27.9424 3.78498C27.1877 4.54043 26.7633 5.56424 26.7622 6.63205V7.43723C26.7633 8.50504 27.1877 9.52885 27.9424 10.2843C28.697 11.0398 29.7204 11.4653 30.7882 11.4675H32.351C32.395 11.4664 32.4368 11.4481 32.4675 11.4166C32.4983 11.385 32.5155 11.3427 32.5155 11.2987V8.7013C32.516 8.67933 32.5122 8.65747 32.5042 8.63701C32.4962 8.61655 32.4842 8.5979 32.4689 8.58216C32.4535 8.56642 32.4352 8.55392 32.4149 8.54538C32.3947 8.53684 32.3729 8.53245 32.351 8.53246H29.6193V5.93505H32.351C33.0885 5.9362 33.7953 6.22998 34.3164 6.75187C34.8375 7.27376 35.1302 7.98111 35.1302 8.7186V11.316C35.1291 12.0532 34.836 12.7599 34.3152 13.2815C33.7944 13.8031 33.0881 14.0973 32.351 14.0996Z" fill="#404BFF"/>
<path d="M13.0779 14.1169H10.4805V2.76622C10.4805 2.03446 10.7709 1.33264 11.2879 0.814807C11.8049 0.296973 12.5063 0.00548019 13.238 0.00433324H13.277C13.8436 0.00427486 14.3966 0.178201 14.8611 0.502603C15.3256 0.827004 15.6793 1.28623 15.8744 1.81819L19.3766 11.3983C19.3877 11.426 19.4067 11.4499 19.4314 11.4669C19.4561 11.4838 19.4852 11.4931 19.5151 11.4935H19.5801C19.6179 11.4935 19.6542 11.4785 19.681 11.4517C19.7078 11.4249 19.7229 11.3885 19.7229 11.3506V0H22.3203V11.3506C22.3191 12.0824 22.0277 12.7838 21.5098 13.3008C20.992 13.8178 20.2901 14.1082 19.5584 14.1082H19.4934C18.9274 14.1086 18.3748 13.9353 17.9103 13.6117C17.4459 13.2881 17.0918 12.8298 16.896 12.2987L13.3939 2.71427C13.3828 2.68649 13.3637 2.66263 13.339 2.64568C13.3144 2.62873 13.2853 2.61947 13.2554 2.61905H13.2424C13.2041 2.62017 13.1677 2.63616 13.1411 2.66365C13.1144 2.69113 13.0995 2.72792 13.0995 2.76622L13.0779 14.1169Z" fill="#404BFF"/>
<path d="M2.61469 2.76191V5.7316H7.41559V8.32901H2.61469V11.3333C2.61404 11.3526 2.61744 11.3719 2.62467 11.3898C2.6319 11.4077 2.64284 11.4239 2.6567 11.4373C2.67056 11.4508 2.68704 11.4612 2.70515 11.4679C2.72327 11.4746 2.74263 11.4774 2.76191 11.4762H8.63202V14.0736H2.76191C2.39942 14.0742 2.04035 14.0033 1.70529 13.8649C1.37022 13.7266 1.06573 13.5236 0.809205 13.2674C0.552682 13.0113 0.349172 12.7072 0.21032 12.3723C0.0714686 12.0375 -4.46675e-07 11.6785 0 11.316V2.75758C0.00342329 2.02653 0.295616 1.32645 0.812957 0.809919C1.3303 0.293389 2.03086 0.00227654 2.76191 0H8.63635V2.59741H2.76191C2.74103 2.59726 2.72033 2.60155 2.70124 2.61001C2.68216 2.61846 2.66512 2.63089 2.6512 2.64644C2.63728 2.662 2.62679 2.68033 2.6205 2.70024C2.61421 2.72015 2.61223 2.74118 2.61469 2.76191Z" fill="#404BFF"/>
<path d="M58.264 14.1082H50.4372C49.8805 14.1079 49.3368 13.9394 48.8776 13.6247C48.4183 13.31 48.0648 12.8638 47.8636 12.3447C47.6623 11.8257 47.6226 11.2579 47.7497 10.7159C47.8768 10.1738 48.1647 9.68287 48.5757 9.30734L55.5973 2.91771C55.6125 2.90412 55.6247 2.88742 55.6329 2.86875C55.6411 2.85009 55.6452 2.82988 55.645 2.80949V2.76618C55.645 2.74685 55.6412 2.72774 55.6338 2.70988C55.6264 2.69202 55.6156 2.67577 55.6019 2.66211C55.5882 2.64844 55.572 2.63761 55.5541 2.63021C55.5363 2.62282 55.5171 2.61901 55.4978 2.61901H47.6753V0.0216064H55.4978C56.2303 0.0216064 56.9328 0.31259 57.4508 0.830548C57.9687 1.34851 58.2597 2.05101 58.2597 2.78352V2.8268C58.2593 3.21158 58.1786 3.59204 58.0229 3.94387C57.8671 4.2957 57.6396 4.61117 57.3549 4.8701L50.3376 11.2554C50.3081 11.2838 50.291 11.3227 50.29 11.3636C50.29 11.4027 50.3055 11.4401 50.3331 11.4677C50.3607 11.4953 50.3982 11.5108 50.4372 11.5108H58.264V14.1082Z" fill="#404BFF"/>
<path d="M65.543 13.7089C65.0048 13.7089 64.5184 13.5899 64.0838 13.3519C63.6543 13.1138 63.3153 12.7852 63.067 12.3661C62.8238 11.9418 62.7021 11.4683 62.7021 10.9457C62.7021 10.423 62.8238 9.95215 63.067 9.53301C63.3153 9.10869 63.6569 8.77751 64.0915 8.53948C64.5262 8.30145 65.0126 8.18243 65.5508 8.18243C65.9544 8.18243 66.327 8.2497 66.6685 8.38424C67.01 8.51878 67.2998 8.71542 67.5378 8.97415L67.173 9.33896C66.7487 8.90947 66.2131 8.69472 65.5663 8.69472C65.1368 8.69472 64.7461 8.79304 64.3942 8.98967C64.0424 9.18631 63.7655 9.45539 63.5637 9.79691C63.3671 10.1384 63.2688 10.5214 63.2688 10.9457C63.2688 11.37 63.3671 11.7529 63.5637 12.0944C63.7655 12.436 64.0424 12.705 64.3942 12.9017C64.7461 13.0983 65.1368 13.1966 65.5663 13.1966C66.2183 13.1966 66.7539 12.9793 67.173 12.5446L67.5378 12.9094C67.2998 13.1682 67.0074 13.3674 66.6607 13.5071C66.3192 13.6416 65.9466 13.7089 65.543 13.7089Z" fill="#404BFF"/>
<path d="M72.4725 13.6623L71.2306 11.9159C71.0908 11.9314 70.9459 11.9392 70.7959 11.9392H69.3366V13.6623H68.7623V8.22901H70.7959C71.4893 8.22901 72.0326 8.39459 72.4259 8.72577C72.8192 9.05694 73.0158 9.51231 73.0158 10.0919C73.0158 10.5162 72.9071 10.8758 72.6898 11.1708C72.4776 11.4605 72.1723 11.6701 71.7739 11.7995L73.1012 13.6623H72.4725ZM70.7804 11.4502C71.3185 11.4502 71.7299 11.3312 72.0145 11.0932C72.2991 10.8551 72.4414 10.5214 72.4414 10.0919C72.4414 9.65202 72.2991 9.31567 72.0145 9.08282C71.7299 8.84478 71.3185 8.72577 70.7804 8.72577H69.3366V11.4502H70.7804Z" fill="#404BFF"/>
<path d="M80.0144 8.22901V13.6623H79.4633V9.31567L77.3287 12.9715H77.0571L74.9226 9.33896V13.6623H74.3715V8.22901H74.8449L77.2046 12.2574L79.5409 8.22901H80.0144Z" fill="#404BFF"/>
<path d="M45.8398 8.64504V14.1169H44.2856C44.1552 13.5377 43.9284 12.9846 43.6147 12.4805C43.5021 12.2901 43.3766 12.0866 43.2251 11.8702L43.0908 11.6797C43.0908 11.6797 43.1601 11.3983 43.2251 10.9264C43.2251 10.8528 43.225 10.7749 43.2553 10.697C43.4242 9.27707 43.4718 6.58876 41.9566 4.42859L41.7358 4.14719C41.6276 3.99135 41.5194 3.84849 41.4155 3.71429C41.3246 3.83118 41.2294 3.96105 41.1298 4.09958L40.8744 4.42426C39.3419 6.58876 39.3895 9.27276 39.5757 10.6927C39.5757 10.7836 39.5757 10.8702 39.6103 10.9524C39.6406 11.1956 39.6839 11.4369 39.7402 11.6753C39.6926 11.736 39.6493 11.8009 39.6103 11.8615C39.4588 12.0779 39.3289 12.2944 39.2164 12.4762C38.9027 12.9803 38.6759 13.5334 38.5454 14.1126H36.9956V8.64504C36.9956 3.91776 40.4588 0.917753 40.5844 0.792212L41.4502 0.0649414L42.316 0.792212C42.3982 0.939398 45.8398 3.91776 45.8398 8.64504Z" fill="#404BFF"/>
<path d="M43.2254 14.1126L41.3985 16L39.5674 14.1169C39.7429 13.7883 40.0043 13.5136 40.3237 13.322C40.6432 13.1304 41.0087 13.0292 41.3812 13.0292C41.7537 13.0292 42.1192 13.1304 42.4387 13.322C42.7582 13.5136 43.0196 13.7883 43.195 14.1169L43.2254 14.1126Z" fill="#FF6006"/>
</svg>
