<svg width="19" height="20" viewBox="0 0 19 20" fill="none" xmlns="http://www.w3.org/2000/svg">
<path d="M11.2084 4.99984C12.0223 5.15864 12.7704 5.55672 13.3568 6.14312C13.9432 6.72952 14.3412 7.47756 14.5 8.2915M11.2084 1.6665C12.8994 1.85437 14.4764 2.61165 15.6802 3.81401C16.8841 5.01637 17.6434 6.59235 17.8334 8.28317M8.02253 11.5524C7.02121 10.5511 6.23055 9.41888 5.65056 8.21086C5.60067 8.10695 5.57572 8.055 5.55656 7.98926C5.48846 7.75563 5.53737 7.46875 5.67905 7.27089C5.71892 7.21521 5.76655 7.16758 5.86181 7.07232C6.15315 6.78098 6.29881 6.63531 6.39405 6.48883C6.75322 5.93642 6.75321 5.22427 6.39405 4.67186C6.29881 4.52538 6.15315 4.37971 5.86181 4.08837L5.69942 3.92598C5.25655 3.48311 5.03511 3.26168 4.7973 3.14139C4.32433 2.90217 3.76577 2.90217 3.29281 3.14139C3.05499 3.26168 2.83355 3.48311 2.39069 3.92598L2.25932 4.05735C1.81797 4.4987 1.59729 4.71937 1.42875 5.0194C1.24174 5.35232 1.10727 5.8694 1.10841 6.25125C1.10943 6.59537 1.17618 6.83056 1.30969 7.30093C2.02716 9.82876 3.38089 12.2141 5.37088 14.204C7.36086 16.194 9.74616 17.5478 12.274 18.2652C12.7444 18.3987 12.9795 18.4655 13.3237 18.4665C13.7055 18.4677 14.2226 18.3332 14.5555 18.1462C14.8555 17.9776 15.0762 17.757 15.5176 17.3156L15.6489 17.1842C16.0918 16.7414 16.3132 16.5199 16.4335 16.2821C16.6728 15.8091 16.6728 15.2506 16.4335 14.7776C16.3132 14.5398 16.0918 14.3184 15.6489 13.8755L15.4865 13.7131C15.1952 13.4218 15.0495 13.2761 14.9031 13.1809C14.3506 12.8217 13.6385 12.8217 13.0861 13.1809C12.9396 13.2761 12.7939 13.4218 12.5026 13.7131C12.4073 13.8084 12.3597 13.856 12.304 13.8959C12.1062 14.0375 11.8193 14.0865 11.5857 14.0184C11.5199 13.9992 11.468 13.9743 11.3641 13.9244C10.156 13.3444 9.02384 12.5537 8.02253 11.5524Z" stroke="#475467" stroke-width="1.66667" stroke-linecap="round" stroke-linejoin="round"/>
</svg>
