<svg width="20" height="20" viewBox="0 0 20 20" fill="none" xmlns="http://www.w3.org/2000/svg">
<path d="M6.98065 13.0138L2.2666 17.7279M9.74539 5.53507L8.44465 6.83581C8.33854 6.94191 8.28549 6.99496 8.22505 7.03712C8.1714 7.07453 8.11353 7.10551 8.05264 7.12939C7.98404 7.1563 7.91047 7.17101 7.76333 7.20044L4.70961 7.81118C3.91602 7.9699 3.51923 8.04926 3.33359 8.25847C3.17187 8.44073 3.09802 8.68464 3.13148 8.92599C3.16989 9.20304 3.45602 9.48917 4.02829 10.0614L9.93307 15.9662C10.5053 16.5385 10.7915 16.8246 11.0685 16.863C11.3099 16.8965 11.5538 16.8226 11.736 16.6609C11.9452 16.4753 12.0246 16.0785 12.1833 15.2849L12.7941 12.2312C12.8235 12.084 12.8382 12.0105 12.8651 11.9419C12.889 11.881 12.92 11.8231 12.9574 11.7695C12.9995 11.709 13.0526 11.656 13.1587 11.5499L14.4594 10.2491C14.5273 10.1813 14.5612 10.1474 14.5985 10.1177C14.6316 10.0914 14.6667 10.0677 14.7034 10.0467C14.7447 10.0231 14.7888 10.0042 14.877 9.9664L16.9556 9.07555C17.5621 8.81566 17.8653 8.68572 18.003 8.47573C18.1234 8.2921 18.1665 8.06835 18.1229 7.85312C18.073 7.607 17.8398 7.37374 17.3732 6.90722L13.0873 2.62127C12.6208 2.15475 12.3875 1.92149 12.1414 1.8716C11.9262 1.82797 11.7024 1.87106 11.5188 1.9915C11.3088 2.12923 11.1788 2.43244 10.9189 3.03886L10.0281 5.11749C9.99031 5.20567 9.97142 5.24976 9.9478 5.2911C9.92682 5.32783 9.90307 5.36291 9.87676 5.39603C9.84714 5.43331 9.81322 5.46723 9.74539 5.53507Z" stroke="#EAECF0" stroke-width="1.66667" stroke-linecap="round" stroke-linejoin="round"/>
</svg>
