<svg width="21" height="20" viewBox="0 0 21 20" fill="none" xmlns="http://www.w3.org/2000/svg">
<path d="M16.3337 17.5L13.8337 15M13.8337 15L16.3337 12.5M13.8337 15H18.8337M10.5003 12.9167H6.75033C5.58736 12.9167 5.00587 12.9167 4.53271 13.0602C3.46737 13.3834 2.63369 14.217 2.31053 15.2824C2.16699 15.7555 2.16699 16.337 2.16699 17.5M12.5837 6.25C12.5837 8.32107 10.9047 10 8.83366 10C6.76259 10 5.08366 8.32107 5.08366 6.25C5.08366 4.17893 6.76259 2.5 8.83366 2.5C10.9047 2.5 12.5837 4.17893 12.5837 6.25Z" stroke="#667085" stroke-width="1.66667" stroke-linecap="round" stroke-linejoin="round"/>
</svg>
