<svg width="21" height="20" viewBox="0 0 21 20" fill="none" xmlns="http://www.w3.org/2000/svg">
<path d="M17.1663 8.75001V5.66667C17.1663 4.26654 17.1663 3.56647 16.8939 3.0317C16.6542 2.56129 16.2717 2.17884 15.8013 1.93916C15.2665 1.66667 14.5665 1.66667 13.1663 1.66667H7.83301C6.43288 1.66667 5.73281 1.66667 5.19803 1.93916C4.72763 2.17884 4.34517 2.56129 4.10549 3.0317C3.83301 3.56647 3.83301 4.26654 3.83301 5.66667V14.3333C3.83301 15.7335 3.83301 16.4335 4.10549 16.9683C4.34517 17.4387 4.72763 17.8212 5.19803 18.0609C5.73281 18.3333 6.43288 18.3333 7.83301 18.3333H10.4997M12.1663 9.16667H7.16634M8.83301 12.5H7.16634M13.833 5.83334H7.16634M15.4997 17.5V12.5M12.9997 15H17.9997" stroke="#667085" stroke-width="1.66667" stroke-linecap="round" stroke-linejoin="round"/>
</svg>
